<svg xmlns="http://www.w3.org/2000/svg" width="512" height="512" viewBox="0 0 128 128">
  <defs>
    <linearGradient id="g" x1="0" x2="1" y1="0" y2="1">
      <stop offset="0%" stop-color="#6aa6ff"/>
      <stop offset="100%" stop-color="#b892ff"/>
    </linearGradient>
  </defs>
  <rect rx="20" ry="20" width="128" height="128" fill="url(#g)"/>
  <g fill="white">
    <path d="M20 64c0-24 20-44 44-44 9 0 17 2 24 7l-8 10c-5-3-10-5-16-5-18 0-32 14-32 32s14 32 32 32c14 0 26-9 30-22h-22v-12h38c0 24-20 44-44 44S20 88 20 64z"/>
    <path d="M36 66h30l-8 10H36zM82 42l10 6-20 28-10-6z"/>
  </g>
</svg>
